<mxfile host="app.diagrams.net" agent="Mozilla/5.0 (Windows NT 10.0; Win64; x64) AppleWebKit/537.36 (KHTML, like Gecko) Chrome/130.0.0.0 Safari/537.36 Edg/130.0.0.0" version="24.8.3" pages="3">
  <diagram id="WlC3J6lgqoPmz3dnHDcR" name="Home">
    <mxGraphModel dx="1965" dy="1073" grid="1" gridSize="10" guides="1" tooltips="1" connect="1" arrows="1" fold="1" page="1" pageScale="1" pageWidth="850" pageHeight="1100" math="0" shadow="0">
      <root>
        <mxCell id="0" />
        <mxCell id="1" parent="0" />
        <mxCell id="4uDFCCSCIVrJm48S_Lgz-28" value="" style="group" vertex="1" connectable="0" parent="1">
          <mxGeometry x="25" y="10" width="800" height="38" as="geometry" />
        </mxCell>
        <mxCell id="4uDFCCSCIVrJm48S_Lgz-7" value="" style="rounded=0;whiteSpace=wrap;html=1;" vertex="1" parent="4uDFCCSCIVrJm48S_Lgz-28">
          <mxGeometry width="800" height="20" as="geometry" />
        </mxCell>
        <mxCell id="4uDFCCSCIVrJm48S_Lgz-9" value="" style="rounded=0;whiteSpace=wrap;html=1;" vertex="1" parent="4uDFCCSCIVrJm48S_Lgz-28">
          <mxGeometry y="18" width="800" height="20" as="geometry" />
        </mxCell>
        <mxCell id="4uDFCCSCIVrJm48S_Lgz-10" value="" style="html=1;shadow=0;dashed=0;align=center;verticalAlign=middle;shape=mxgraph.arrows2.arrow;dy=0.91;dx=18;flipH=1;notch=0;strokeColor=default;" vertex="1" parent="4uDFCCSCIVrJm48S_Lgz-28">
          <mxGeometry x="4" y="25" width="36" height="10" as="geometry" />
        </mxCell>
        <mxCell id="4uDFCCSCIVrJm48S_Lgz-15" value="" style="group" vertex="1" connectable="0" parent="4uDFCCSCIVrJm48S_Lgz-28">
          <mxGeometry x="48" y="20" width="16" height="16" as="geometry" />
        </mxCell>
        <mxCell id="4uDFCCSCIVrJm48S_Lgz-12" value="" style="verticalLabelPosition=bottom;verticalAlign=top;html=1;shape=mxgraph.basic.arc;startAngle=0.3;endAngle=0.1;" vertex="1" parent="4uDFCCSCIVrJm48S_Lgz-15">
          <mxGeometry y="2.666666666666666" width="16" height="13.333333333333329" as="geometry" />
        </mxCell>
        <mxCell id="4uDFCCSCIVrJm48S_Lgz-13" value="" style="endArrow=none;html=1;rounded=0;" edge="1" parent="4uDFCCSCIVrJm48S_Lgz-15">
          <mxGeometry width="50" height="50" relative="1" as="geometry">
            <mxPoint x="12.799999999999997" y="4" as="sourcePoint" />
            <mxPoint x="11.199999999999998" as="targetPoint" />
          </mxGeometry>
        </mxCell>
        <mxCell id="4uDFCCSCIVrJm48S_Lgz-14" value="" style="endArrow=none;html=1;rounded=0;" edge="1" parent="4uDFCCSCIVrJm48S_Lgz-15">
          <mxGeometry width="50" height="50" relative="1" as="geometry">
            <mxPoint x="8" y="6.666666666666664" as="sourcePoint" />
            <mxPoint x="12.799999999999997" y="4" as="targetPoint" />
          </mxGeometry>
        </mxCell>
        <mxCell id="4uDFCCSCIVrJm48S_Lgz-20" value="" style="whiteSpace=wrap;html=1;" vertex="1" parent="4uDFCCSCIVrJm48S_Lgz-28">
          <mxGeometry x="75" y="26" width="8" height="8" as="geometry" />
        </mxCell>
        <mxCell id="4uDFCCSCIVrJm48S_Lgz-21" value="" style="triangle;whiteSpace=wrap;html=1;rotation=-90;" vertex="1" parent="4uDFCCSCIVrJm48S_Lgz-28">
          <mxGeometry x="75" y="18" width="8" height="12" as="geometry" />
        </mxCell>
        <mxCell id="4uDFCCSCIVrJm48S_Lgz-23" value="" style="endArrow=none;html=1;rounded=0;exitX=0.119;exitY=0.989;exitDx=0;exitDy=0;exitPerimeter=0;" edge="1" parent="4uDFCCSCIVrJm48S_Lgz-28" source="4uDFCCSCIVrJm48S_Lgz-9">
          <mxGeometry width="50" height="50" relative="1" as="geometry">
            <mxPoint x="95" y="40" as="sourcePoint" />
            <mxPoint x="95" y="18" as="targetPoint" />
          </mxGeometry>
        </mxCell>
        <mxCell id="4uDFCCSCIVrJm48S_Lgz-6" value="" style="group" vertex="1" connectable="0" parent="1">
          <mxGeometry x="85" y="200" width="680" height="280" as="geometry" />
        </mxCell>
        <mxCell id="4uDFCCSCIVrJm48S_Lgz-1" value="" style="rounded=0;whiteSpace=wrap;html=1;" vertex="1" parent="4uDFCCSCIVrJm48S_Lgz-6">
          <mxGeometry width="680" height="280" as="geometry" />
        </mxCell>
        <mxCell id="4uDFCCSCIVrJm48S_Lgz-3" value="" style="html=1;shadow=0;dashed=0;align=center;verticalAlign=middle;shape=mxgraph.arrows2.arrow;dy=0.6;dx=40;notch=0;fillColor=#000000;" vertex="1" parent="4uDFCCSCIVrJm48S_Lgz-6">
          <mxGeometry x="615" y="125" width="60" height="30" as="geometry" />
        </mxCell>
        <mxCell id="4uDFCCSCIVrJm48S_Lgz-4" value="" style="html=1;shadow=0;dashed=0;align=center;verticalAlign=middle;shape=mxgraph.arrows2.arrow;dy=0.6;dx=40;notch=0;fillColor=#000000;rotation=-180;" vertex="1" parent="4uDFCCSCIVrJm48S_Lgz-6">
          <mxGeometry x="5" y="125" width="58" height="30" as="geometry" />
        </mxCell>
        <mxCell id="4uDFCCSCIVrJm48S_Lgz-29" value="&lt;h1 style=&quot;font-size: 28px;&quot;&gt;Image&lt;/h1&gt;" style="text;html=1;align=center;verticalAlign=middle;whiteSpace=wrap;rounded=0;fontStyle=1;aspect=fixed;fontSize=28;" vertex="1" parent="4uDFCCSCIVrJm48S_Lgz-6">
          <mxGeometry x="190" y="103.00999999999999" width="300" height="73.99" as="geometry" />
        </mxCell>
        <mxCell id="4uDFCCSCIVrJm48S_Lgz-24" value="https://www.myphotographer.com/index.html" style="text;html=1;align=center;verticalAlign=middle;whiteSpace=wrap;rounded=0;" vertex="1" parent="1">
          <mxGeometry x="210" y="23" width="60" height="30" as="geometry" />
        </mxCell>
        <mxCell id="4uDFCCSCIVrJm48S_Lgz-25" value="" style="whiteSpace=wrap;html=1;aspect=fixed;" vertex="1" parent="1">
          <mxGeometry x="41" y="60" width="80" height="80" as="geometry" />
        </mxCell>
        <mxCell id="4uDFCCSCIVrJm48S_Lgz-26" value="LOGO" style="text;html=1;align=center;verticalAlign=middle;whiteSpace=wrap;rounded=0;" vertex="1" parent="1">
          <mxGeometry x="51" y="85" width="60" height="30" as="geometry" />
        </mxCell>
        <mxCell id="4uDFCCSCIVrJm48S_Lgz-27" value="&lt;h1 style=&quot;font-size: 45px;&quot;&gt;Headline&lt;/h1&gt;" style="text;html=1;align=center;verticalAlign=middle;whiteSpace=wrap;rounded=0;fontStyle=1;aspect=fixed;fontSize=45;" vertex="1" parent="1">
          <mxGeometry x="275" y="115" width="300" height="73.99" as="geometry" />
        </mxCell>
        <mxCell id="4uDFCCSCIVrJm48S_Lgz-34" value="" style="group" vertex="1" connectable="0" parent="1">
          <mxGeometry x="600" y="80" width="220" height="47" as="geometry" />
        </mxCell>
        <mxCell id="4uDFCCSCIVrJm48S_Lgz-35" value="" style="rounded=1;whiteSpace=wrap;html=1;" vertex="1" parent="4uDFCCSCIVrJm48S_Lgz-34">
          <mxGeometry x="-5" width="230" height="33" as="geometry" />
        </mxCell>
        <mxCell id="4uDFCCSCIVrJm48S_Lgz-30" value="Home" style="text;html=1;align=center;verticalAlign=middle;whiteSpace=wrap;rounded=0;fontSize=15;labelBorderColor=none;" vertex="1" parent="4uDFCCSCIVrJm48S_Lgz-34">
          <mxGeometry width="60" height="30" as="geometry" />
        </mxCell>
        <mxCell id="4uDFCCSCIVrJm48S_Lgz-31" value="Gallery" style="text;html=1;align=center;verticalAlign=middle;whiteSpace=wrap;rounded=0;fontSize=15;labelBorderColor=none;" vertex="1" parent="4uDFCCSCIVrJm48S_Lgz-34">
          <mxGeometry x="80" width="60" height="30" as="geometry" />
        </mxCell>
        <mxCell id="4uDFCCSCIVrJm48S_Lgz-32" value="Contact" style="text;html=1;align=center;verticalAlign=middle;whiteSpace=wrap;rounded=0;fontSize=15;labelBorderColor=none;" vertex="1" parent="4uDFCCSCIVrJm48S_Lgz-34">
          <mxGeometry x="155" width="60" height="30" as="geometry" />
        </mxCell>
        <mxCell id="4uDFCCSCIVrJm48S_Lgz-38" value="" style="group" vertex="1" connectable="0" parent="1">
          <mxGeometry x="31" y="520" width="120" height="60" as="geometry" />
        </mxCell>
        <mxCell id="4uDFCCSCIVrJm48S_Lgz-36" value="" style="rounded=1;whiteSpace=wrap;html=1;" vertex="1" parent="4uDFCCSCIVrJm48S_Lgz-38">
          <mxGeometry width="120" height="60" as="geometry" />
        </mxCell>
        <mxCell id="4uDFCCSCIVrJm48S_Lgz-37" value="Subheading" style="text;html=1;align=center;verticalAlign=middle;whiteSpace=wrap;rounded=0;" vertex="1" parent="4uDFCCSCIVrJm48S_Lgz-38">
          <mxGeometry x="30" y="15" width="60" height="30" as="geometry" />
        </mxCell>
        <mxCell id="4uDFCCSCIVrJm48S_Lgz-39" value="" style="group" vertex="1" connectable="0" parent="1">
          <mxGeometry x="30" y="810" width="120" height="60" as="geometry" />
        </mxCell>
        <mxCell id="4uDFCCSCIVrJm48S_Lgz-40" value="" style="rounded=1;whiteSpace=wrap;html=1;" vertex="1" parent="4uDFCCSCIVrJm48S_Lgz-39">
          <mxGeometry width="120" height="60" as="geometry" />
        </mxCell>
        <mxCell id="4uDFCCSCIVrJm48S_Lgz-41" value="Subheading" style="text;html=1;align=center;verticalAlign=middle;whiteSpace=wrap;rounded=0;" vertex="1" parent="4uDFCCSCIVrJm48S_Lgz-39">
          <mxGeometry x="30" y="15" width="60" height="30" as="geometry" />
        </mxCell>
        <mxCell id="4uDFCCSCIVrJm48S_Lgz-45" value="" style="rounded=1;whiteSpace=wrap;html=1;" vertex="1" parent="1">
          <mxGeometry x="80" y="890" width="690" height="160" as="geometry" />
        </mxCell>
        <mxCell id="4uDFCCSCIVrJm48S_Lgz-42" value="&lt;h1 style=&quot;margin-top: 0px;&quot;&gt;&lt;span style=&quot;background-color: initial; font-size: 12px; font-weight: normal;&quot;&gt;Lorem ipsum dolor sit amet, consectetur adipisicing elit, sed do eiusmod tempor incididunt ut labore et dolore magna aliqua.&lt;/span&gt;&lt;/h1&gt;" style="text;html=1;whiteSpace=wrap;overflow=hidden;rounded=0;" vertex="1" parent="1">
          <mxGeometry x="110" y="890" width="630" height="120" as="geometry" />
        </mxCell>
        <mxCell id="4uDFCCSCIVrJm48S_Lgz-44" value="&lt;h1 style=&quot;margin-top: 0px;&quot;&gt;&lt;span style=&quot;background-color: initial; font-size: 12px; font-weight: normal;&quot;&gt;Lorem ipsum dolor sit amet, consectetur adipisicing elit, sed do eiusmod tempor incididunt ut labore et dolore magna aliqua.&lt;/span&gt;&lt;/h1&gt;" style="text;html=1;whiteSpace=wrap;overflow=hidden;rounded=0;" vertex="1" parent="1">
          <mxGeometry x="111" y="970" width="630" height="120" as="geometry" />
        </mxCell>
        <mxCell id="jhFCWHzYT0NyBhZo-mLa-2" value="" style="group;" vertex="1" connectable="0" parent="1">
          <mxGeometry x="80" y="610" width="169" height="170" as="geometry" />
        </mxCell>
        <mxCell id="4uDFCCSCIVrJm48S_Lgz-46" value="" style="rounded=1;whiteSpace=wrap;html=1;" vertex="1" parent="jhFCWHzYT0NyBhZo-mLa-2">
          <mxGeometry width="169" height="170" as="geometry" />
        </mxCell>
        <mxCell id="jhFCWHzYT0NyBhZo-mLa-1" value="&lt;h1 style=&quot;margin-top: 0px;&quot;&gt;Heading&lt;/h1&gt;&lt;p&gt;Lorem ipsum dolor sit amet, consectetur adipisicing elit, sed do eiusmod tempor incididunt ut labore et dolore magna aliqua.&lt;/p&gt;" style="text;html=1;whiteSpace=wrap;overflow=hidden;rounded=0;" vertex="1" parent="jhFCWHzYT0NyBhZo-mLa-2">
          <mxGeometry x="14.5" y="25" width="140" height="120" as="geometry" />
        </mxCell>
        <mxCell id="jhFCWHzYT0NyBhZo-mLa-4" value="" style="group;" vertex="1" connectable="0" parent="1">
          <mxGeometry x="341" y="610" width="169" height="170" as="geometry" />
        </mxCell>
        <mxCell id="jhFCWHzYT0NyBhZo-mLa-5" value="" style="rounded=1;whiteSpace=wrap;html=1;" vertex="1" parent="jhFCWHzYT0NyBhZo-mLa-4">
          <mxGeometry width="169" height="170" as="geometry" />
        </mxCell>
        <mxCell id="jhFCWHzYT0NyBhZo-mLa-6" value="&lt;h1 style=&quot;margin-top: 0px;&quot;&gt;Heading&lt;/h1&gt;&lt;p&gt;Lorem ipsum dolor sit amet, consectetur adipisicing elit, sed do eiusmod tempor incididunt ut labore et dolore magna aliqua.&lt;/p&gt;" style="text;html=1;whiteSpace=wrap;overflow=hidden;rounded=0;" vertex="1" parent="jhFCWHzYT0NyBhZo-mLa-4">
          <mxGeometry x="14.5" y="25" width="140" height="120" as="geometry" />
        </mxCell>
        <mxCell id="jhFCWHzYT0NyBhZo-mLa-7" value="" style="group;" vertex="1" connectable="0" parent="1">
          <mxGeometry x="600" y="610" width="169" height="170" as="geometry" />
        </mxCell>
        <mxCell id="jhFCWHzYT0NyBhZo-mLa-8" value="" style="rounded=1;whiteSpace=wrap;html=1;" vertex="1" parent="jhFCWHzYT0NyBhZo-mLa-7">
          <mxGeometry width="169" height="170" as="geometry" />
        </mxCell>
        <mxCell id="jhFCWHzYT0NyBhZo-mLa-9" value="&lt;h1 style=&quot;margin-top: 0px;&quot;&gt;Heading&lt;/h1&gt;&lt;p&gt;Lorem ipsum dolor sit amet, consectetur adipisicing elit, sed do eiusmod tempor incididunt ut labore et dolore magna aliqua.&lt;/p&gt;" style="text;html=1;whiteSpace=wrap;overflow=hidden;rounded=0;" vertex="1" parent="jhFCWHzYT0NyBhZo-mLa-7">
          <mxGeometry x="14.5" y="25" width="140" height="120" as="geometry" />
        </mxCell>
      </root>
    </mxGraphModel>
  </diagram>
  <diagram name="Gallery" id="ciZph3JAtMU8r_M3rbq0">
    <mxGraphModel dx="1572" dy="858" grid="1" gridSize="10" guides="1" tooltips="1" connect="1" arrows="1" fold="1" page="1" pageScale="1" pageWidth="850" pageHeight="1100" math="0" shadow="0">
      <root>
        <mxCell id="0" />
        <mxCell id="1" parent="0" />
        <mxCell id="dcdIFrTcm1tJzoqM7sdo-13" value="" style="rounded=1;whiteSpace=wrap;html=1;" vertex="1" parent="1">
          <mxGeometry x="280" y="85" width="280" height="100" as="geometry" />
        </mxCell>
        <mxCell id="tb2Tr5g3x_LSD0vMxE7q-1" value="Gallery" style="text;html=1;align=center;verticalAlign=middle;whiteSpace=wrap;rounded=0;fontSize=56;fontStyle=1" vertex="1" parent="1">
          <mxGeometry x="390" y="120" width="60" height="30" as="geometry" />
        </mxCell>
        <mxCell id="dcdIFrTcm1tJzoqM7sdo-1" value="" style="group" vertex="1" connectable="0" parent="1">
          <mxGeometry x="25" y="10" width="800" height="43" as="geometry" />
        </mxCell>
        <mxCell id="dcdIFrTcm1tJzoqM7sdo-2" value="" style="rounded=0;whiteSpace=wrap;html=1;" vertex="1" parent="dcdIFrTcm1tJzoqM7sdo-1">
          <mxGeometry width="800" height="20" as="geometry" />
        </mxCell>
        <mxCell id="dcdIFrTcm1tJzoqM7sdo-3" value="" style="rounded=0;whiteSpace=wrap;html=1;" vertex="1" parent="dcdIFrTcm1tJzoqM7sdo-1">
          <mxGeometry y="18" width="800" height="20" as="geometry" />
        </mxCell>
        <mxCell id="dcdIFrTcm1tJzoqM7sdo-4" value="" style="html=1;shadow=0;dashed=0;align=center;verticalAlign=middle;shape=mxgraph.arrows2.arrow;dy=0.91;dx=18;flipH=1;notch=0;strokeColor=default;" vertex="1" parent="dcdIFrTcm1tJzoqM7sdo-1">
          <mxGeometry x="4" y="25" width="36" height="10" as="geometry" />
        </mxCell>
        <mxCell id="dcdIFrTcm1tJzoqM7sdo-5" value="" style="group" vertex="1" connectable="0" parent="dcdIFrTcm1tJzoqM7sdo-1">
          <mxGeometry x="48" y="20" width="16" height="16" as="geometry" />
        </mxCell>
        <mxCell id="dcdIFrTcm1tJzoqM7sdo-6" value="" style="verticalLabelPosition=bottom;verticalAlign=top;html=1;shape=mxgraph.basic.arc;startAngle=0.3;endAngle=0.1;" vertex="1" parent="dcdIFrTcm1tJzoqM7sdo-5">
          <mxGeometry y="2.666666666666666" width="16" height="13.333333333333329" as="geometry" />
        </mxCell>
        <mxCell id="dcdIFrTcm1tJzoqM7sdo-7" value="" style="endArrow=none;html=1;rounded=0;" edge="1" parent="dcdIFrTcm1tJzoqM7sdo-5">
          <mxGeometry width="50" height="50" relative="1" as="geometry">
            <mxPoint x="12.799999999999997" y="4" as="sourcePoint" />
            <mxPoint x="11.199999999999998" as="targetPoint" />
          </mxGeometry>
        </mxCell>
        <mxCell id="dcdIFrTcm1tJzoqM7sdo-8" value="" style="endArrow=none;html=1;rounded=0;" edge="1" parent="dcdIFrTcm1tJzoqM7sdo-5">
          <mxGeometry width="50" height="50" relative="1" as="geometry">
            <mxPoint x="8" y="6.666666666666664" as="sourcePoint" />
            <mxPoint x="12.799999999999997" y="4" as="targetPoint" />
          </mxGeometry>
        </mxCell>
        <mxCell id="dcdIFrTcm1tJzoqM7sdo-9" value="" style="whiteSpace=wrap;html=1;" vertex="1" parent="dcdIFrTcm1tJzoqM7sdo-1">
          <mxGeometry x="75" y="26" width="8" height="8" as="geometry" />
        </mxCell>
        <mxCell id="dcdIFrTcm1tJzoqM7sdo-10" value="" style="triangle;whiteSpace=wrap;html=1;rotation=-90;" vertex="1" parent="dcdIFrTcm1tJzoqM7sdo-1">
          <mxGeometry x="75" y="18" width="8" height="12" as="geometry" />
        </mxCell>
        <mxCell id="dcdIFrTcm1tJzoqM7sdo-11" value="" style="endArrow=none;html=1;rounded=0;exitX=0.119;exitY=0.989;exitDx=0;exitDy=0;exitPerimeter=0;" edge="1" parent="dcdIFrTcm1tJzoqM7sdo-1" source="dcdIFrTcm1tJzoqM7sdo-3">
          <mxGeometry width="50" height="50" relative="1" as="geometry">
            <mxPoint x="95" y="40" as="sourcePoint" />
            <mxPoint x="95" y="18" as="targetPoint" />
          </mxGeometry>
        </mxCell>
        <mxCell id="dcdIFrTcm1tJzoqM7sdo-12" value="https://www.myphotographer.com/index.html/gallery/" style="text;html=1;align=center;verticalAlign=middle;whiteSpace=wrap;rounded=0;" vertex="1" parent="dcdIFrTcm1tJzoqM7sdo-1">
          <mxGeometry x="215" y="13" width="60" height="30" as="geometry" />
        </mxCell>
        <mxCell id="dcdIFrTcm1tJzoqM7sdo-23" value="" style="group" vertex="1" connectable="0" parent="1">
          <mxGeometry x="40" y="230" width="770" height="180" as="geometry" />
        </mxCell>
        <mxCell id="dcdIFrTcm1tJzoqM7sdo-16" value="" style="group" vertex="1" connectable="0" parent="dcdIFrTcm1tJzoqM7sdo-23">
          <mxGeometry width="210" height="180" as="geometry" />
        </mxCell>
        <mxCell id="dcdIFrTcm1tJzoqM7sdo-14" value="" style="rounded=0;whiteSpace=wrap;html=1;" vertex="1" parent="dcdIFrTcm1tJzoqM7sdo-16">
          <mxGeometry width="210" height="180" as="geometry" />
        </mxCell>
        <mxCell id="dcdIFrTcm1tJzoqM7sdo-15" value="" style="shape=collate;whiteSpace=wrap;html=1;" vertex="1" parent="dcdIFrTcm1tJzoqM7sdo-16">
          <mxGeometry width="210" height="180" as="geometry" />
        </mxCell>
        <mxCell id="dcdIFrTcm1tJzoqM7sdo-17" value="" style="group" vertex="1" connectable="0" parent="dcdIFrTcm1tJzoqM7sdo-23">
          <mxGeometry x="280" width="210" height="180" as="geometry" />
        </mxCell>
        <mxCell id="dcdIFrTcm1tJzoqM7sdo-18" value="" style="rounded=0;whiteSpace=wrap;html=1;" vertex="1" parent="dcdIFrTcm1tJzoqM7sdo-17">
          <mxGeometry width="210" height="180" as="geometry" />
        </mxCell>
        <mxCell id="dcdIFrTcm1tJzoqM7sdo-19" value="" style="shape=collate;whiteSpace=wrap;html=1;" vertex="1" parent="dcdIFrTcm1tJzoqM7sdo-17">
          <mxGeometry width="210" height="180" as="geometry" />
        </mxCell>
        <mxCell id="dcdIFrTcm1tJzoqM7sdo-20" value="" style="group" vertex="1" connectable="0" parent="dcdIFrTcm1tJzoqM7sdo-23">
          <mxGeometry x="560" width="210" height="180" as="geometry" />
        </mxCell>
        <mxCell id="dcdIFrTcm1tJzoqM7sdo-21" value="" style="rounded=0;whiteSpace=wrap;html=1;" vertex="1" parent="dcdIFrTcm1tJzoqM7sdo-20">
          <mxGeometry width="210" height="180" as="geometry" />
        </mxCell>
        <mxCell id="dcdIFrTcm1tJzoqM7sdo-22" value="" style="shape=collate;whiteSpace=wrap;html=1;" vertex="1" parent="dcdIFrTcm1tJzoqM7sdo-20">
          <mxGeometry width="210" height="180" as="geometry" />
        </mxCell>
        <mxCell id="dcdIFrTcm1tJzoqM7sdo-24" value="" style="group" vertex="1" connectable="0" parent="1">
          <mxGeometry x="40" y="470" width="770" height="180" as="geometry" />
        </mxCell>
        <mxCell id="dcdIFrTcm1tJzoqM7sdo-25" value="" style="group" vertex="1" connectable="0" parent="dcdIFrTcm1tJzoqM7sdo-24">
          <mxGeometry width="210" height="180" as="geometry" />
        </mxCell>
        <mxCell id="dcdIFrTcm1tJzoqM7sdo-26" value="" style="rounded=0;whiteSpace=wrap;html=1;" vertex="1" parent="dcdIFrTcm1tJzoqM7sdo-25">
          <mxGeometry width="210" height="180" as="geometry" />
        </mxCell>
        <mxCell id="dcdIFrTcm1tJzoqM7sdo-27" value="" style="shape=collate;whiteSpace=wrap;html=1;" vertex="1" parent="dcdIFrTcm1tJzoqM7sdo-25">
          <mxGeometry width="210" height="180" as="geometry" />
        </mxCell>
        <mxCell id="dcdIFrTcm1tJzoqM7sdo-28" value="" style="group" vertex="1" connectable="0" parent="dcdIFrTcm1tJzoqM7sdo-24">
          <mxGeometry x="280" width="210" height="180" as="geometry" />
        </mxCell>
        <mxCell id="dcdIFrTcm1tJzoqM7sdo-29" value="" style="rounded=0;whiteSpace=wrap;html=1;" vertex="1" parent="dcdIFrTcm1tJzoqM7sdo-28">
          <mxGeometry width="210" height="180" as="geometry" />
        </mxCell>
        <mxCell id="dcdIFrTcm1tJzoqM7sdo-30" value="" style="shape=collate;whiteSpace=wrap;html=1;" vertex="1" parent="dcdIFrTcm1tJzoqM7sdo-28">
          <mxGeometry width="210" height="180" as="geometry" />
        </mxCell>
        <mxCell id="dcdIFrTcm1tJzoqM7sdo-31" value="" style="group" vertex="1" connectable="0" parent="dcdIFrTcm1tJzoqM7sdo-24">
          <mxGeometry x="560" width="210" height="180" as="geometry" />
        </mxCell>
        <mxCell id="dcdIFrTcm1tJzoqM7sdo-32" value="" style="rounded=0;whiteSpace=wrap;html=1;" vertex="1" parent="dcdIFrTcm1tJzoqM7sdo-31">
          <mxGeometry width="210" height="180" as="geometry" />
        </mxCell>
        <mxCell id="dcdIFrTcm1tJzoqM7sdo-33" value="" style="shape=collate;whiteSpace=wrap;html=1;" vertex="1" parent="dcdIFrTcm1tJzoqM7sdo-31">
          <mxGeometry width="210" height="180" as="geometry" />
        </mxCell>
        <mxCell id="dcdIFrTcm1tJzoqM7sdo-34" value="" style="group" vertex="1" connectable="0" parent="1">
          <mxGeometry x="40" y="720" width="770" height="180" as="geometry" />
        </mxCell>
        <mxCell id="dcdIFrTcm1tJzoqM7sdo-35" value="" style="group" vertex="1" connectable="0" parent="dcdIFrTcm1tJzoqM7sdo-34">
          <mxGeometry width="210" height="180" as="geometry" />
        </mxCell>
        <mxCell id="dcdIFrTcm1tJzoqM7sdo-36" value="" style="rounded=0;whiteSpace=wrap;html=1;" vertex="1" parent="dcdIFrTcm1tJzoqM7sdo-35">
          <mxGeometry width="210" height="180" as="geometry" />
        </mxCell>
        <mxCell id="dcdIFrTcm1tJzoqM7sdo-37" value="" style="shape=collate;whiteSpace=wrap;html=1;" vertex="1" parent="dcdIFrTcm1tJzoqM7sdo-35">
          <mxGeometry width="210" height="180" as="geometry" />
        </mxCell>
        <mxCell id="dcdIFrTcm1tJzoqM7sdo-38" value="" style="group" vertex="1" connectable="0" parent="dcdIFrTcm1tJzoqM7sdo-34">
          <mxGeometry x="280" width="210" height="180" as="geometry" />
        </mxCell>
        <mxCell id="dcdIFrTcm1tJzoqM7sdo-39" value="" style="rounded=0;whiteSpace=wrap;html=1;" vertex="1" parent="dcdIFrTcm1tJzoqM7sdo-38">
          <mxGeometry width="210" height="180" as="geometry" />
        </mxCell>
        <mxCell id="dcdIFrTcm1tJzoqM7sdo-40" value="" style="shape=collate;whiteSpace=wrap;html=1;" vertex="1" parent="dcdIFrTcm1tJzoqM7sdo-38">
          <mxGeometry width="210" height="180" as="geometry" />
        </mxCell>
        <mxCell id="dcdIFrTcm1tJzoqM7sdo-41" value="" style="group" vertex="1" connectable="0" parent="dcdIFrTcm1tJzoqM7sdo-34">
          <mxGeometry x="560" width="210" height="180" as="geometry" />
        </mxCell>
        <mxCell id="dcdIFrTcm1tJzoqM7sdo-42" value="" style="rounded=0;whiteSpace=wrap;html=1;" vertex="1" parent="dcdIFrTcm1tJzoqM7sdo-41">
          <mxGeometry width="210" height="180" as="geometry" />
        </mxCell>
        <mxCell id="dcdIFrTcm1tJzoqM7sdo-43" value="" style="shape=collate;whiteSpace=wrap;html=1;" vertex="1" parent="dcdIFrTcm1tJzoqM7sdo-41">
          <mxGeometry width="210" height="180" as="geometry" />
        </mxCell>
      </root>
    </mxGraphModel>
  </diagram>
  <diagram id="bihHdyh2H9GcnDe166aU" name="Contact">
    <mxGraphModel dx="1965" dy="1073" grid="1" gridSize="10" guides="1" tooltips="1" connect="1" arrows="1" fold="1" page="1" pageScale="1" pageWidth="850" pageHeight="1100" math="0" shadow="0">
      <root>
        <mxCell id="0" />
        <mxCell id="1" parent="0" />
        <mxCell id="N4--P1gnZoEp6qKTiS_B-1" value="" style="group" vertex="1" connectable="0" parent="1">
          <mxGeometry x="25" y="10" width="800" height="43" as="geometry" />
        </mxCell>
        <mxCell id="N4--P1gnZoEp6qKTiS_B-2" value="" style="rounded=0;whiteSpace=wrap;html=1;" vertex="1" parent="N4--P1gnZoEp6qKTiS_B-1">
          <mxGeometry width="800" height="20" as="geometry" />
        </mxCell>
        <mxCell id="N4--P1gnZoEp6qKTiS_B-3" value="" style="rounded=0;whiteSpace=wrap;html=1;" vertex="1" parent="N4--P1gnZoEp6qKTiS_B-1">
          <mxGeometry y="18" width="800" height="20" as="geometry" />
        </mxCell>
        <mxCell id="N4--P1gnZoEp6qKTiS_B-4" value="" style="html=1;shadow=0;dashed=0;align=center;verticalAlign=middle;shape=mxgraph.arrows2.arrow;dy=0.91;dx=18;flipH=1;notch=0;strokeColor=default;" vertex="1" parent="N4--P1gnZoEp6qKTiS_B-1">
          <mxGeometry x="4" y="25" width="36" height="10" as="geometry" />
        </mxCell>
        <mxCell id="N4--P1gnZoEp6qKTiS_B-5" value="" style="group" vertex="1" connectable="0" parent="N4--P1gnZoEp6qKTiS_B-1">
          <mxGeometry x="48" y="20" width="16" height="16" as="geometry" />
        </mxCell>
        <mxCell id="N4--P1gnZoEp6qKTiS_B-6" value="" style="verticalLabelPosition=bottom;verticalAlign=top;html=1;shape=mxgraph.basic.arc;startAngle=0.3;endAngle=0.1;" vertex="1" parent="N4--P1gnZoEp6qKTiS_B-5">
          <mxGeometry y="2.666666666666666" width="16" height="13.333333333333329" as="geometry" />
        </mxCell>
        <mxCell id="N4--P1gnZoEp6qKTiS_B-7" value="" style="endArrow=none;html=1;rounded=0;" edge="1" parent="N4--P1gnZoEp6qKTiS_B-5">
          <mxGeometry width="50" height="50" relative="1" as="geometry">
            <mxPoint x="12.799999999999997" y="4" as="sourcePoint" />
            <mxPoint x="11.199999999999998" as="targetPoint" />
          </mxGeometry>
        </mxCell>
        <mxCell id="N4--P1gnZoEp6qKTiS_B-8" value="" style="endArrow=none;html=1;rounded=0;" edge="1" parent="N4--P1gnZoEp6qKTiS_B-5">
          <mxGeometry width="50" height="50" relative="1" as="geometry">
            <mxPoint x="8" y="6.666666666666664" as="sourcePoint" />
            <mxPoint x="12.799999999999997" y="4" as="targetPoint" />
          </mxGeometry>
        </mxCell>
        <mxCell id="N4--P1gnZoEp6qKTiS_B-9" value="" style="whiteSpace=wrap;html=1;" vertex="1" parent="N4--P1gnZoEp6qKTiS_B-1">
          <mxGeometry x="75" y="26" width="8" height="8" as="geometry" />
        </mxCell>
        <mxCell id="N4--P1gnZoEp6qKTiS_B-10" value="" style="triangle;whiteSpace=wrap;html=1;rotation=-90;" vertex="1" parent="N4--P1gnZoEp6qKTiS_B-1">
          <mxGeometry x="75" y="18" width="8" height="12" as="geometry" />
        </mxCell>
        <mxCell id="N4--P1gnZoEp6qKTiS_B-11" value="" style="endArrow=none;html=1;rounded=0;exitX=0.119;exitY=0.989;exitDx=0;exitDy=0;exitPerimeter=0;" edge="1" parent="N4--P1gnZoEp6qKTiS_B-1" source="N4--P1gnZoEp6qKTiS_B-3">
          <mxGeometry width="50" height="50" relative="1" as="geometry">
            <mxPoint x="95" y="40" as="sourcePoint" />
            <mxPoint x="95" y="18" as="targetPoint" />
          </mxGeometry>
        </mxCell>
        <mxCell id="N4--P1gnZoEp6qKTiS_B-12" value="https://www.myphotographer.com/index.html/contact/" style="text;html=1;align=center;verticalAlign=middle;whiteSpace=wrap;rounded=0;" vertex="1" parent="N4--P1gnZoEp6qKTiS_B-1">
          <mxGeometry x="215" y="13" width="60" height="30" as="geometry" />
        </mxCell>
        <mxCell id="7WQReKc-_BwMBIe4DnO7-1" value="" style="rounded=0;whiteSpace=wrap;html=1;" vertex="1" parent="1">
          <mxGeometry x="60" y="110" width="730" height="530" as="geometry" />
        </mxCell>
        <mxCell id="7WQReKc-_BwMBIe4DnO7-2" value="&lt;b&gt;&lt;font style=&quot;font-size: 22px;&quot;&gt;Contact&lt;/font&gt;&lt;/b&gt;" style="text;html=1;align=center;verticalAlign=middle;whiteSpace=wrap;rounded=0;" vertex="1" parent="1">
          <mxGeometry x="395" y="130" width="60" height="30" as="geometry" />
        </mxCell>
        <mxCell id="7WQReKc-_BwMBIe4DnO7-6" value="" style="group" vertex="1" connectable="0" parent="1">
          <mxGeometry x="130" y="270" width="260" height="60" as="geometry" />
        </mxCell>
        <mxCell id="7WQReKc-_BwMBIe4DnO7-3" value="" style="rounded=0;whiteSpace=wrap;html=1;" vertex="1" parent="7WQReKc-_BwMBIe4DnO7-6">
          <mxGeometry x="10" y="30" width="250" height="30" as="geometry" />
        </mxCell>
        <mxCell id="7WQReKc-_BwMBIe4DnO7-5" value="Last Name" style="text;html=1;align=left;verticalAlign=middle;whiteSpace=wrap;rounded=0;" vertex="1" parent="7WQReKc-_BwMBIe4DnO7-6">
          <mxGeometry width="100" height="30" as="geometry" />
        </mxCell>
        <mxCell id="7WQReKc-_BwMBIe4DnO7-7" value="" style="group" vertex="1" connectable="0" parent="1">
          <mxGeometry x="130" y="210" width="260" height="60" as="geometry" />
        </mxCell>
        <mxCell id="7WQReKc-_BwMBIe4DnO7-8" value="" style="rounded=0;whiteSpace=wrap;html=1;" vertex="1" parent="7WQReKc-_BwMBIe4DnO7-7">
          <mxGeometry x="10" y="30" width="250" height="30" as="geometry" />
        </mxCell>
        <mxCell id="7WQReKc-_BwMBIe4DnO7-9" value="First Name" style="text;html=1;align=left;verticalAlign=middle;whiteSpace=wrap;rounded=0;" vertex="1" parent="7WQReKc-_BwMBIe4DnO7-7">
          <mxGeometry width="100" height="30" as="geometry" />
        </mxCell>
        <mxCell id="7WQReKc-_BwMBIe4DnO7-10" value="" style="group;align=left;" vertex="1" connectable="0" parent="1">
          <mxGeometry x="130" y="330" width="260" height="60" as="geometry" />
        </mxCell>
        <mxCell id="7WQReKc-_BwMBIe4DnO7-11" value="" style="rounded=0;whiteSpace=wrap;html=1;" vertex="1" parent="7WQReKc-_BwMBIe4DnO7-10">
          <mxGeometry x="10" y="30" width="250" height="30" as="geometry" />
        </mxCell>
        <mxCell id="7WQReKc-_BwMBIe4DnO7-12" value="Email" style="text;html=1;align=left;verticalAlign=middle;whiteSpace=wrap;rounded=0;" vertex="1" parent="7WQReKc-_BwMBIe4DnO7-10">
          <mxGeometry width="100" height="30" as="geometry" />
        </mxCell>
        <mxCell id="7WQReKc-_BwMBIe4DnO7-16" value="" style="rounded=0;whiteSpace=wrap;html=1;" vertex="1" parent="1">
          <mxGeometry x="140" y="420" width="250" height="120" as="geometry" />
        </mxCell>
        <mxCell id="7WQReKc-_BwMBIe4DnO7-17" value="Comment" style="text;html=1;align=left;verticalAlign=middle;whiteSpace=wrap;rounded=0;" vertex="1" parent="1">
          <mxGeometry x="130" y="390" width="60" height="30" as="geometry" />
        </mxCell>
        <mxCell id="7WQReKc-_BwMBIe4DnO7-18" value="" style="rounded=1;whiteSpace=wrap;html=1;" vertex="1" parent="1">
          <mxGeometry x="140" y="560" width="90" height="30" as="geometry" />
        </mxCell>
        <mxCell id="7WQReKc-_BwMBIe4DnO7-20" value="Submit" style="text;html=1;align=center;verticalAlign=middle;whiteSpace=wrap;rounded=0;" vertex="1" parent="1">
          <mxGeometry x="155" y="560" width="60" height="30" as="geometry" />
        </mxCell>
      </root>
    </mxGraphModel>
  </diagram>
</mxfile>
